<svg id="Layer_1" data-name="Layer 1" xmlns="http://www.w3.org/2000/svg" xmlns:xlink="http://www.w3.org/1999/xlink" viewBox="0 0 270 64"><defs><style>.cls-1{fill:url(#radial-gradient);}.cls-2{fill:#1f2348;}</style><radialGradient id="radial-gradient" cx="54.17" cy="63.17" r="72.02" gradientUnits="userSpaceOnUse"><stop offset="0" stop-color="#ec991c"/><stop offset="1" stop-color="#e9b213"/></radialGradient></defs><title>nimiq_logo_rgb_horizontal</title><path class="cls-1" d="M71.2,29l-15-26A6,6,0,0,0,51,0H21a6,6,0,0,0-5.19,3L.8,29a6,6,0,0,0,0,6l15,26A6,6,0,0,0,21,64H51a6,6,0,0,0,5.19-3l15-26A6,6,0,0,0,71.2,29Z"/><path class="cls-2" d="M124.5,13H131V51h-5L105.5,24.5V51H99V13h5l20.5,26.5Z"/><path class="cls-2" d="M144,51V13h7V51Z"/><path class="cls-2" d="M195.5,13H201V51h-6V27.5L184.75,51h-4.5L170,27.5V51h-6V13h5.5l13,29.75Z"/><path class="cls-2" d="M214,51V13h7V51Z"/><path class="cls-2" d="M267.76,42.34a15.86,15.86,0,0,1-8,7.59,21.09,21.09,0,0,0,3.05,4.1,38,38,0,0,0,4,3.72L262,61.5a29,29,0,0,1-4.82-4.38,31.82,31.82,0,0,1-4.07-5.67c-.28,0-1.1,0-1.61,0a19.67,19.67,0,0,1-9.89-2.36,15.71,15.71,0,0,1-6.4-6.8A23.51,23.51,0,0,1,233,32a22.34,22.34,0,0,1,2.24-10.34,15.87,15.87,0,0,1,6.42-6.8,21.8,21.8,0,0,1,19.73,0,15.71,15.71,0,0,1,6.4,6.8A22.6,22.6,0,0,1,270,32,23.33,23.33,0,0,1,267.76,42.34Zm-24.73,0a11.7,11.7,0,0,0,16.94,0c2-2.43,3-5.85,3-10.37s-1-8-3-10.39a11.78,11.78,0,0,0-16.94,0c-2,2.39-3,5.9-3,10.42S241,39.94,243,42.37Z"/></svg>